{"title":"Players 2012 DVDrip English Subs Klam","uid":7050001,"size":2737890237,"categoryP":"video","categoryS":"movies","magnet":"?xt=urn:btih:93c6affbbc09ee054fc1658ad4f634b82643cd1a&amp;dn=Players+2012+DVDrip+English+Subs+Klam&amp;tr=udp%3A%2F%2Ftracker.openbittorrent.com%3A80&amp;tr=udp%3A%2F%2Fopen.demonii.com%3A1337&amp;tr=udp%3A%2F%2Ftracker.coppersurfer.tk%3A6969&amp;tr=udp%3A%2F%2Fexodus.desync.com%3A6969","seeders":0,"leechers":1,"uploader":"Klambake","files":-1,"time":1329919890,"description":"With: Abhishek Bachchan, Sonam Kapoor and Bipasha Basu\n\nCharlie is een man die een dubbelleven leidt. Overdag is hij boekhouder en 's nachts is hij een crimineel. Samen met een team specialisten besluit hij een transport van een enorme hoeveelheid goud te overvallen. Aangezien het ÃƒÂ©ÃƒÂ©n van de grootste en gedurfdste operaties ooit zal worden, bedenken ze een uitgekiend plan.\n\nTwo thieves, a magician, a computer hacker, a wannabe actor and a explosives expert plan a robbery to fulfill the dream of Victor Braganza. Will they be successful or will destiny have something different for them? \n\n------------------------ Dutch Friends ------------------------\n---------------------------------------------------------------\n- Bezoek ook eens mijn vrienden op: &lt;a href=&quot; http://www.Film-Test.nl&quot; rel=&quot;nofollow&quot; target=&quot;_NEW&quot;&gt; http://www.Film-Test.nl&lt;/a&gt; --\n----- voor mijn Nederlandse Sync. ondertitels ---- en meer ----\n------- http://www.Film-Test.nl ---- voor Films en meer -------\n---------------------------------------------------------------\n\nGeneral:\n\nComplete name                    : Players\\Players.avi\nFormat                           : AVI\nFormat/Info                      : Audio Video Interleave\nFile size                        : 2.55 GiB\nDuration                         : 2h 43mn\nOverall bit rate                 : 2 233 Kbps\n\nVideo:\n\nFormat                           : MPEG-4 Visual\nFormat profile                   : Simple@L3\nFormat settings, BVOP            : No\nFormat settings, QPel            : No\nFormat settings, GMC             : No warppoints\nFormat settings, Matrix          : Default (H.263)\nCodec ID                         : XVID\nCodec ID/Hint                    : XviD\nDuration                         : 2h 43mn\nBit rate                         : 1 774 Kbps\nWidth                            : 720 pixels\nHeight                           : 304 pixels\nDisplay aspect ratio             : 2.35:1\nFrame rate                       : 23.976 fps\nColor space                      : YUV\nChroma subsampling               : 4:2:0\nBit depth                        : 8 bits\nScan type                        : Progressive\nCompression mode                 : Lossy\nBits/(Pixel*Frame)               : 0.338\nStream size                      : 2.03 GiB (79%)\nWriting library                  : XviD 1.1.2 (UTC 2006-11-01)\n\nAudio:\n\nFormat                           : AC-3\nFormat/Info                      : Audio Coding 3\nMode extension                   : CM (complete main)\nCodec ID                         : 2000\nDuration                         : 2h 43mn\nBit rate mode                    : Constant\nBit rate                         : 448 Kbps\nChannel(s)                       : 6 channels\nChannel positions                : Front: L C R, Side: L R, LFE\nSampling rate                    : 48.0 KHz\nBit depth                        : 16 bits\nCompression mode                 : Lossy\nStream size                      : 524 MiB (20%)\nAlignment                        : Aligned on interleaves\nInterleave, duration             : 32 ms (0.77 video frame)\nInterleave, preload duration     : 288 ms\n\n\n","torrent":{"xt":"urn:btih:93c6affbbc09ee054fc1658ad4f634b82643cd1a","amp;dn":"Players+2012+DVDrip+English+Subs+Klam","amp;tr":["udp%3A%2F%2Ftracker.openbittorrent.com%3A80","udp%3A%2F%2Fopen.demonii.com%3A1337","udp%3A%2F%2Ftracker.coppersurfer.tk%3A6969","udp%3A%2F%2Fexodus.desync.com%3A6969"],"infoHash":"93c6affbbc09ee054fc1658ad4f634b82643cd1a","infoHashBuffer":{"type":"Buffer","data":[147,198,175,251,188,9,238,5,79,193,101,138,212,246,52,184,38,67,205,26]},"announce":[],"urlList":[]}}